<svg xmlns="http://www.w3.org/2000/svg" xml:space="preserve" width="120" height="120" style="shape-rendering:geometricPrecision;text-rendering:geometricPrecision;image-rendering:optimizeQuality;fill-rule:evenodd;clip-rule:evenodd"><path d="M109.84 88.73c-1.36 2.36-3.86 3.68-6.4 3.68-1.27 0-2.55-.33-3.73-1.01l-5.79-3.38 1.24 4.68c.78 2.96-.98 6-3.95 6.78-.47.13-.95.19-1.42.19-2.46 0-4.7-1.64-5.36-4.12l-4.1-15.46-13.83-8.08V88.3l11.18 11.29a5.544 5.544 0 0 1-.05 7.84 5.487 5.487 0 0 1-3.9 1.61c-1.43 0-2.86-.55-3.94-1.64l-3.29-3.32v6.81c0 4.09-3.31 7.39-7.4 7.39s-7.4-3.3-7.4-7.39v-6.82l-3.28 3.32a5.556 5.556 0 0 1-7.85.05 5.535 5.535 0 0 1-.04-7.84L51.7 88.3l-.19-16.29-13.83 8.07-4.1 15.46a5.556 5.556 0 0 1-5.36 4.12c-.47 0-.95-.06-1.43-.19a5.539 5.539 0 0 1-3.94-6.78l1.24-4.68-5.8 3.38c-.97.69-2.25 1.02-3.52 1.02-2.55 0-5.02-1.32-6.4-3.67-2.06-3.52-.87-8.05 2.66-10.11l6-3.5-4.7-1.27c-2.96-.79-4.7-3.84-3.9-6.8.8-2.95 3.83-4.69 6.81-3.9l15.22 4.14 13.98-8.16-13.98-8.16-15.22 4.14c-.49.13-.98.2-1.46.2-2.44 0-4.68-1.63-5.35-4.1-.8-2.96.94-5.99 3.9-6.8l4.7-1.27-6-3.51c-3.53-2.06-4.72-6.58-2.66-10.1 2.05-3.54 6.59-4.73 10.12-2.66l5.8 3.38-1.25-4.69c-.78-2.95 1-5.99 3.75-6.77 3.19-.8 6 .98 7 3.93l4.1 15.46 13.62 8.08V29.99L40.53 18.68c-2.14-2.18-2.14-5.69.05-7.84 2.17-2.16 5.68-2.13 7.85.05l3.29 3.32-.21-6.82c0-4.09 3.31-7.39 7.4-7.39 4.08 0 7.4 3.3 7.4 7.39v6.82l3.28-3.32a5.547 5.547 0 0 1 7.85-.05c2.18 2.15 2.2 5.66.04 7.84l-11.17 11.3.19 16.29 13.83-8.07 4.1-15.46a5.539 5.539 0 0 1 6.79-3.93c2.96.78 4.73 3.82 3.94 6.78l-1.24 4.68 5.8-3.38a7.398 7.398 0 0 1 10.12 2.66c2.06 3.52.87 8.05-2.66 10.11l-6 3.5 4.7 1.27c2.96.8 4.71 3.85 3.9 6.8a5.546 5.546 0 0 1-6.8 3.9l-15.43-4.15-13.77 8.16 13.96 8.15 15.24-4.13c2.98-.79 6 .95 6.81 3.9.81 2.96-.94 6-3.9 6.81l-4.7 1.27 6 3.5c3.53 2.05 4.71 6.58 2.65 10.09z" style="fill:#585570"/><path d="M111.63 90.45a7.401 7.401 0 0 1-6.4 3.68c-1.27 0-2.55-.33-3.73-1.01l-5.8-3.39 1.25 4.69c.78 2.96-.99 6-3.95 6.78-.48.13-.95.19-1.42.19-2.46 0-4.71-1.64-5.36-4.12l-4.1-15.46-13.83-8.08v16.28l11.17 11.3a5.535 5.535 0 0 1-.04 7.84 5.487 5.487 0 0 1-3.9 1.61c-1.43 0-2.86-.55-3.95-1.65l-3.28-3.32v6.82c0 4.09-3.32 7.39-7.4 7.39-4.09 0-7.4-3.3-7.4-7.39v-6.82l-3.29 3.32a5.544 5.544 0 0 1-7.84.05 5.535 5.535 0 0 1-.05-7.84l11.18-11.3-.2-16.29-13.83 8.07-4.1 15.46c-.65 2.48-2.9 4.12-5.36 4.12-.47 0-.94-.06-1.42-.19a5.553 5.553 0 0 1-3.95-6.78l1.25-4.68-5.8 3.38c-.97.69-2.26 1.02-3.53 1.02-2.54 0-5.02-1.32-6.39-3.67a7.383 7.383 0 0 1 2.65-10.11l6-3.5-4.69-1.27c-2.96-.79-4.71-3.84-3.91-6.8a5.563 5.563 0 0 1 6.81-3.9l15.23 4.13 13.97-8.15-13.97-8.16-15.23 4.14c-.49.13-.97.19-1.46.19-2.44 0-4.68-1.62-5.35-4.09-.8-2.96.95-5.99 3.91-6.8l4.69-1.27-6-3.51a7.383 7.383 0 0 1-2.65-10.11c2.05-3.53 6.58-4.72 10.12-2.65l5.79 3.38-1.24-4.69c-.78-2.95 1-5.99 3.74-6.77 3.19-.8 6.01.98 7 3.93l4.1 15.46 13.62 8.08V31.7L42.32 20.4c-2.15-2.18-2.15-5.69.05-7.84 2.17-2.16 5.68-2.13 7.85.05l3.29 3.32-.22-6.82c0-4.09 3.32-7.39 7.4-7.39 4.09 0 7.4 3.3 7.4 7.39v6.82l3.29-3.32a5.544 5.544 0 1 1 7.89 7.79L68.09 31.7l.2 16.29 13.83-8.07 4.1-15.46c.78-2.95 3.82-4.73 6.78-3.93 2.97.78 4.73 3.82 3.95 6.78l-1.24 4.68 5.79-3.38c3.53-2.06 8.07-.87 10.12 2.66 2.07 3.52.88 8.04-2.65 10.1l-6 3.5 4.7 1.28a5.541 5.541 0 0 1-1.45 10.89c-.48 0-.97-.06-1.46-.19L89.33 52.7l-13.77 8.16 13.97 8.15 15.24-4.13c2.97-.79 6 .95 6.81 3.9.8 2.95-.94 6-3.9 6.8l-4.7 1.28 6 3.5c3.52 2.05 4.7 6.58 2.64 10.09h.01z" style="fill:#e6e7e8"/></svg>