<?xml version="1.0" encoding="UTF-8"?>
<!DOCTYPE svg PUBLIC "-//W3C//DTD SVG 1.1//EN" "http://www.w3.org/Graphics/SVG/1.1/DTD/svg11.dtd">
<!-- Creator: CorelDRAW 2019 (64-Bit) -->
<svg xmlns="http://www.w3.org/2000/svg" xml:space="preserve" width="3.81105in" height="1.16666in" version="1.1" style="shape-rendering:geometricPrecision; text-rendering:geometricPrecision; image-rendering:optimizeQuality; fill-rule:evenodd; clip-rule:evenodd"
viewBox="0 0 3808.77 1165.96"
 xmlns:xlink="http://www.w3.org/1999/xlink">
 <defs>
  <style type="text/css">
   <![CDATA[
    .fil0 {fill:#009FE2}
    .fil2 {fill:#5AC1EC}
    .fil4 {fill:#6FCAEF}
    .fil5 {fill:#8ED5F3}
    .fil3 {fill:#A2DCF5}
    .fil1 {fill:#FDFDFD}
    .fil6 {fill:#FEFEFE;fill-rule:nonzero}
   ]]>
  </style>
 </defs>
 <g id="Слой_x0020_1">
  <metadata id="CorelCorpID_0Corel-Layer"/>
  <path class="fil0" d="M936.34 449.73l-13.2 9.8c0,5.19 1.25,3.88 -4.06,3.57l-2.21 0.05c0,5.03 1.21,3.73 -3.97,3.56l-3.12 -0.35 -4.02 3.57 -12.54 6.3c0,5.21 1.26,3.92 -4.06,3.58l-3.09 -0.37 -3.99 3.55 -2.16 0.11 -3.95 3.54 -13.29 6.07c0,4.76 1.12,3.42 -3.9,3.49l-2.62 -0.05 -3.93 3.56 -2.2 0.12 -3.96 3.51 -13.31 6.06c0,4.78 1.13,3.44 -3.89,3.49l-2.57 -0.02 -3.89 3.54 -2.3 0.11 -3.92 3.51 -13.33 6.07c0,4.78 1.13,3.45 -3.88,3.5l-2.57 -0.02 -3.93 3.52 -2.23 0.16 -3.9 3.47 -13.33 6.08c0,4.84 1.15,3.53 -3.88,3.52l-2.66 -0.04 -3.9 3.51 -2.23 0.18 -3.91 3.45 -7.05 2.49c0,4.92 1.16,3.6 -3.95,3.48l-2.31 0.11c0,4.88 1.15,3.55 -3.93,3.51l-2.58 -0.02 -3.88 3.31 -6.52 -0.01c-6.08,5.28 3.27,-1.87 -5.36,4.64l-72.37 40.9c-84.74,44.64 -190.81,109.96 -272.12,150.96l-67.92 38.69c-6.14,3.75 -9.87,5.13 -15.31,8 0,-18.21 -2.01,-21.17 -3.33,-36.64 -6.56,-76.92 -25.96,-183.26 -33.18,-259.97l-36.77 -299.69c-5.3,0 -3.47,1.01 -2.72,-5.28l-0.26 -15.26 -4.67 -14.97 1.93 -12.23 -4.67 -14.98 1.31 -11.63 -4.66 -14.96 1.31 -11.64 -4.65 -14.95 0.61 -13.5 -3.96 -13.09 0.61 -13.52 -3.97 -13.06 -0.37 -14.16c-11.93,3.64 -168.74,121.85 -195.71,139.92l54.05 498.94c2.62,17.88 3.62,39.16 6.66,59.96 2.66,18.15 3.72,41.85 7.26,62.7l41.96 374.46c54.25,-28.71 112.19,-66.31 165.46,-94.38l240.96 -138.81c8.18,-4.24 10.6,-6.59 18.86,-11.12l389.55 -223.41 35.78 -20.85 128.9 -74.31c8.09,-5.7 7.59,-9.31 9.73,-20.25 14.15,-72.1 32.02,-182.95 46.79,-246.36l-155.5 84.36c-12.87,6.75 -42.99,26.22 -54.14,28.9z"/>
  <path class="fil1" d="M726.23 566.32l6.52 0.01 3.88 -3.31 2.58 0.02 3.93 -3.51 2.31 -0.11 3.95 -3.48 7.05 -2.49c0,-4.83 -1.14,-3.51 3.91,-3.45l2.23 -0.18c0,-4.88 -1.16,-3.56 3.9,-3.51l2.66 0.04 3.88 -3.52 13.33 -6.08c0,-4.86 -1.15,-3.55 3.9,-3.47l2.23 -0.16c0,-4.91 -1.17,-3.59 3.93,-3.52l2.57 0.02 3.88 -3.5 13.33 -6.07c0,-4.97 -1.19,-3.67 3.92,-3.51l2.3 -0.11c0,-4.91 -1.18,-3.62 3.89,-3.54l2.57 0.02 3.89 -3.49 13.31 -6.06c0,-5 -1.2,-3.7 3.96,-3.51l2.2 -0.12c0,-4.99 -1.2,-3.69 3.93,-3.56l2.62 0.05 3.9 -3.49 13.29 -6.07c0,-5.03 -1.21,-3.75 3.95,-3.54l2.16 -0.11c0,-5.02 -1.2,-3.7 3.99,-3.55l3.09 0.37 4.06 -3.58 12.54 -6.3c0,-5.15 -1.24,-3.86 4.02,-3.57l3.12 0.35 3.97 -3.56 2.21 -0.05 4.06 -3.57 13.2 -9.8 -425.56 -274.26c-22.23,-12.79 -39.33,-27.39 -61.05,-38.89 -9.43,4.99 -13.57,8.3 -22.61,14.03 -25.94,16.44 -151.76,99.31 -163.95,102.56 3.9,14.62 11.63,13.3 24.68,21.96l29.96 20.01 379.77 249.85c9.79,6.53 22.74,13.25 28.65,21.32zm-530.52 -536.34l0.37 14.16 3.97 13.06 -0.61 13.52 3.96 13.09 -0.61 13.5 4.65 14.95 -1.31 11.64 4.66 14.96 -1.31 11.63 4.67 14.98 -1.93 12.23 4.67 14.97 0.26 15.26 2.72 0c10.35,0.2 33.37,-19.13 42.67,-25.35l123.9 -85.98c-6.89,-9.4 -23.6,-17.6 -35.28,-24.69 -14.42,-8.75 -24.72,-15.91 -39.1,-24.19l-69.9 -43.37c-6.12,-4.07 -2.42,-1.57 -5.63,-4.36 -14.57,9.75 -26.24,19.26 -40.81,29.98z"/>
  <path class="fil2" d="M219.87 213.21l0 -5.28 -2.72 0c-0.75,6.28 -2.59,5.28 2.72,5.28zm673.36 263.02l-4.06 3.58c5.32,0.34 4.06,1.63 4.06,-3.58zm29.91 -16.7l-4.06 3.57c5.31,0.31 4.06,1.62 4.06,-3.57z"/>
  <path class="fil3" d="M909.79 466.36c-5.26,-0.29 -4.02,-1.58 -4.02,3.57l4.02 -3.57z"/>
  <path class="fil4" d="M916.87 463.15l-3.97 3.56c5.18,0.17 3.97,1.47 3.97,-3.56z"/>
  <path class="fil5" d="M886.08 479.44c-5.19,-0.15 -3.99,-1.47 -3.99,3.55l3.99 -3.55z"/>
  <path class="fil3" d="M879.93 483.1c-5.17,-0.21 -3.95,-1.5 -3.95,3.54l3.95 -3.54zm-29.9 16.72c-5.16,-0.19 -3.96,-1.49 -3.96,3.51l3.96 -3.51z"/>
  <path class="fil5" d="M856.17 496.15c-5.13,-0.13 -3.93,-1.43 -3.93,3.56l3.93 -3.56z"/>
  <path class="fil3" d="M820.11 516.53c-5.11,-0.17 -3.92,-1.46 -3.92,3.51l3.92 -3.51z"/>
  <path class="fil2" d="M749.4 555.93l-3.95 3.48c5.12,0.13 3.95,1.44 3.95,-3.48z"/>
  <path class="fil5" d="M796.41 529.59c-5.1,-0.07 -3.93,-1.38 -3.93,3.52l3.93 -3.52zm29.89 -16.71c-5.07,-0.07 -3.89,-1.37 -3.89,3.54l3.89 -3.54z"/>
  <path class="fil4" d="M743.14 559.52l-3.93 3.51c5.08,0.03 3.93,1.36 3.93,-3.51z"/>
  <path class="fil5" d="M766.5 546.3c-5.07,-0.05 -3.9,-1.37 -3.9,3.51l3.9 -3.51z"/>
  <path class="fil3" d="M790.25 533.27c-5.05,-0.09 -3.9,-1.39 -3.9,3.47l3.9 -3.47zm-29.9 16.71c-5.05,-0.06 -3.91,-1.38 -3.91,3.45l3.91 -3.45z"/>
  <path class="fil4" d="M773.03 542.82l-3.88 3.52c5.03,0.01 3.88,1.33 3.88,-3.52zm29.83 -16.72l-3.88 3.5c5.01,-0.05 3.88,1.28 3.88,-3.5zm29.9 -16.71l-3.89 3.49c5.01,-0.05 3.89,1.29 3.89,-3.49zm29.93 -16.69l-3.9 3.49c5.01,-0.07 3.9,1.28 3.9,-3.49z"/>
  <path class="fil5" d="M200.05 57.2l-3.97 -13.06 3.97 13.06zm3.35 26.61l-3.96 -13.09 3.96 13.09zm4.04 28.45l-4.65 -14.95 4.65 14.95zm3.36 26.59l-4.66 -14.96 4.66 14.96zm3.35 26.61l-4.67 -14.98 4.67 14.98z"/>
  <polygon class="fil4" points="216.89,192.67 212.22,177.7 "/>
  <polygon class="fil5" points="736.63,563.02 732.75,566.33 "/>
  <path class="fil6" d="M3016.72 684.04l0 -432.14 87.51 0 0 432.14 -87.51 0zm-717.54 -432.14l280.48 0c35.91,0 63.28,2.72 82.08,8.25 25.24,7.43 46.93,20.78 64.98,39.83 18.05,19.05 31.83,42.35 41.24,70.01 9.38,27.55 14.08,61.66 14.08,102.1 0,35.61 -4.46,66.19 -13.28,91.94 -10.78,31.47 -26.2,56.9 -46.17,76.35 -15.12,14.73 -35.51,26.28 -61.16,34.5 -19.19,6.15 -44.88,9.15 -77.05,9.15l-285.21 0 0 -432.14zm87.52 73.03l0 286.08 186.22 0c24.25,0 41.75,-1.44 52.51,-4.12 14.17,-3.54 25.84,-9.59 35.11,-18 9.33,-8.47 16.86,-22.36 22.73,-41.64 5.88,-19.32 8.85,-45.77 8.85,-79.17 0,-33.4 -2.97,-58.94 -8.85,-76.86 -5.87,-17.88 -14.07,-31.82 -24.65,-41.85 -10.53,-9.97 -23.96,-16.75 -40.24,-20.32 -12.08,-2.65 -35.93,-4.12 -71.32,-4.12l-160.37 0zm-558.75 359.11l0 -432.14 384.88 0 0 73.03 -297.37 0 0 95.96 281.07 0 0 73.03 -281.07 0 0 117.09 305.82 0 0 73.03 -393.33 0zm-421.92 0l0 -428.52 87.51 0 0 355.49 260.01 0 0 73.03 -347.52 0zm2208.97 -432.14l-201.04 0c-35.91,0 -63.29,2.72 -82.08,8.25 -24.82,7.19 -47.31,20.99 -64.98,39.84 -18.05,19.05 -31.83,42.35 -41.24,70.01 -9.38,27.55 -14.08,61.66 -14.08,102.1 0,35.61 4.46,66.19 13.28,91.94 10.78,31.47 26.2,56.9 46.17,76.35 15.12,14.73 35.51,26.29 61.16,34.5 19.19,6.15 44.88,9.15 77.05,9.15l205.77 -0 0 -73.03 -194.3 0c-24.24,0 -41.75,-1.44 -52.51,-4.12 -14.17,-3.53 -25.84,-9.59 -35.11,-18 -9.33,-8.47 -16.86,-22.36 -22.73,-41.64 -5.88,-19.32 -8.85,-45.77 -8.85,-79.17 0,-33.4 2.97,-58.94 8.85,-76.86 5.87,-17.88 14.07,-31.82 24.65,-41.85 10.53,-9.97 23.96,-16.75 40.24,-20.32 12.07,-2.65 35.93,-4.12 71.32,-4.12l168.45 0 0 -73.03zm-199.56 440.39l0 -432.14 384.88 0 0 73.03 -297.37 0 0 95.96 281.07 0 0 73.03 -281.07 0 0 117.09 305.82 0 0 73.03 -393.34 0z"/>
 </g>
</svg>
