<svg xmlns="http://www.w3.org/2000/svg" width="46" height="47" xmlns:v="https://vecta.io/nano"><g fill="#f2c7aa"><path d="M30.809 29.411a.99.99 0 0 0-.856-.41l-21 1A1 1 0 0 0 8 31c0 8.822 7.178 16 16 16a1 1 0 0 0 .937-.649l6-16a1 1 0 0 0-.128-.94zM7 10V6a3 3 0 0 1 3-3h0a3 3 0 0 1 3 3v4m2 0V5a3 3 0 0 1 3-3h0a3 3 0 0 1 3 3v5m10 0V5a3 3 0 0 1 3-3h0a3 3 0 0 1 3 3v5"/><path d="M23 10V3a3 3 0 0 1 3-3h0a3 3 0 0 1 3 3v7"/></g><path fill="#4da34d" d="M45 34H1a1 1 0 0 1-1-1V9a1 1 0 0 1 1-1h44a1 1 0 0 1 1 1v24a1 1 0 0 1-1 1z"/><path fill="#9edb9e" d="M37 11H9a6 6 0 0 1-6 6v8a6 6 0 0 1 6 6h28a6 6 0 0 1 6-6v-8a6 6 0 0 1-6-6z"/><circle fill="#4da34d" cx="23" cy="21" r="5"/><path opacity=".1" d="M32 23.951V30c-3.165 0-6.324 1.496-8.441 4h14.149c.186-.973.292-1.974.292-3V17.062c-4.477-.549-6 2.571-6 6.889z"/><path fill="#f2c7aa" d="M40 17.062c-4.477-.549-6 2.571-6 6.889V30c-5.5 0-11 4.5-11 11v4.981c0 .55.437 1.018.987 1.018C32.815 47.007 40 39.826 40 31z"/></svg>