<svg xmlns="http://www.w3.org/2000/svg" width="482.725" height="298.2" xmlns:v="https://vecta.io/nano"><path fill="#ff5f00" d="M170.015 31.89h143.72v234.42h-143.72z"/><path d="M184.515 149.1a149.5 149.5 0 0 1 56.74-117.21C180.127-16.171 92.327-9.185 39.568 47.938s-52.759 145.201 0 202.324 140.559 64.109 201.687 16.048a149.5 149.5 0 0 1-56.74-117.21z" fill="#f44336"/><path d="M482.725 149.1c.041 57.047-32.503 109.106-83.804 134.056s-112.346 18.408-157.196-16.846a149.43 149.43 0 0 0 0-234.42C286.574-3.364 347.619-9.907 398.921 15.044s83.846 77.01 83.804 134.056z" fill="#f79e1b"/></svg>