<svg xmlns="http://www.w3.org/2000/svg" height="229" width="809" xmlns:v="https://vecta.io/nano"><path d="M218 0v.1c-.1 0-31.6-.1-40 30L148 136h-6L112 30C103.6-.1 72 0 72 0H0v229h72V93h3 3l42 136h50l42-135.9h6V229h72V0zm263 0s-21.1 1.9-31 24l-51 112h-6V0h-72v229h68 0s22.1-2 32-24l50-112h6v136h72V0zm100 104v125h72v-73h78c34 0 62.8-21.7 73.5-52z" fill-rule="evenodd" fill="#4db45e"/><linearGradient y2="47" x2="809" y1="47" x1="570.919" gradientUnits="userSpaceOnUse" id="A"><stop offset=".3" stop-color="#00b4e6"/><stop offset="1" stop-color="#088ccb"/></linearGradient><path d="M731 0H570.9c8 43.6 40.7 78.6 83 90h0a115.05 115.05 0 0 0 30.1 4h123.4c1.1-5.2 1.6-10.5 1.6-16 0-43.1-34.9-78-78-78z" fill-rule="evenodd" fill="url(#A)"/></svg>