<svg xmlns="http://www.w3.org/2000/svg" xmlns:xlink="http://www.w3.org/1999/xlink" width="15.792" height="15.767" xmlns:v="https://vecta.io/nano"><defs><linearGradient x1="2.798" y1="10.281" x2="1.86" y2="5.806" id="A" gradientTransform="scale(0.7779051,1.2855038)" xlink:href="#G"><stop stop-color="#f2e913" offset="14.44%"/><stop stop-color="#e7e518" offset="30.37%"/><stop stop-color="#cadb26" offset="58.23%"/><stop stop-color="#a3cd39" offset="89.1%"/></linearGradient><linearGradient x1="2.24" y1="2.709" x2="6.227" y2="1.794" id="B" gradientTransform="scale(1.2875671,0.77665858)" xlink:href="#G"><stop stop-color="#0fa8e0" offset="5.92%"/><stop stop-color="#0099f9" offset="53.85%"/><stop stop-color="#0291eb" offset="92.34%"/></linearGradient><linearGradient x1="7.424" y1="14.201" x2="13.229" y2="13.724" id="C" xlink:href="#G"><stop stop-color="#a3cd39" offset="12.26%"/><stop stop-color="#86c339" offset="28.46%"/><stop stop-color="#21a038" offset="86.93%"/></linearGradient><linearGradient x1="5.769" y1="1.707" x2="9.556" y2="2.386" id="D" gradientTransform="scale(1.3106511,0.76297954)" xlink:href="#G"><stop stop-color="#0291eb" offset="5.66%"/><stop stop-color="#0c8acb" offset="79%"/></linearGradient><linearGradient x1="2.059" y1="16.837" x2="6.426" y2="17.901" id="E" gradientTransform="scale(1.2372988,0.80821218)" xlink:href="#G"><stop stop-color="#f2e913" offset="13.24%"/><stop stop-color="#ebe716" offset="29.77%"/><stop stop-color="#d9e01f" offset="53.06%"/><stop stop-color="#bbd62d" offset="80.23%"/><stop stop-color="#a3cd39" offset="98.29%"/></linearGradient><linearGradient x1="1.769" y1="6.679" x2="2.919" y2="2.119" id="F" gradientTransform="scale(0.80950935,1.2353162)" xlink:href="#G"><stop stop-color="#a3cd39" offset="6.98%"/><stop stop-color="#81c55f" offset="25.99%"/><stop stop-color="#0fa8e0" offset="92.16%"/></linearGradient><linearGradient id="G" gradientUnits="userSpaceOnUse"/></defs><g transform="translate(-.047 -.14)" fill="none"><path d="M14.19 3.216c.373.482.685 1.01.949 1.569l-7.188 5.297-3.018-1.895V5.918l3.003 1.88z" fill="#21a038"/><g transform="translate(0 .155)"><path d="M1.867 7.876c0-.109 0-.202.016-.311l-1.82-.093-.016.388a7.86 7.86 0 0 0 2.318 5.577l1.291-1.289C2.552 11.06 1.867 9.553 1.867 7.876z" fill="url(#A)"/><path d="M7.935 1.817a2.09 2.09 0 0 1 .311.016L8.34.016C8.215.016 8.075 0 7.951 0 5.772 0 3.796.885 2.365 2.315l1.291 1.289a6.01 6.01 0 0 1 4.279-1.786z" fill="url(#B)"/><path d="M7.935 13.934c-.109 0-.202 0-.311-.016l-.093 1.817.389.016c2.178 0 4.154-.885 5.586-2.315l-1.291-1.289c-1.089 1.118-2.598 1.786-4.279 1.786z" fill="url(#C)"/></g><path d="M11.358 3.029l1.54-1.134A7.91 7.91 0 0 0 7.935.14h0v1.817c1.276.016 2.458.404 3.423 1.072z" fill="url(#D)"/><path d="M15.839 8.031c0-.482-.047-.948-.124-1.414l-1.696 1.258v.155c0 1.786-.778 3.386-2.007 4.489l1.229 1.351c1.587-1.429 2.598-3.526 2.598-5.841z" fill="#21a038"/><path d="M7.935 14.089c-1.789 0-3.392-.777-4.497-2.004l-1.354 1.227c1.447 1.6 3.532 2.594 5.85 2.594z" fill="url(#E)"/><path d="M3.874 3.542L2.645 2.19A7.83 7.83 0 0 0 .047 8.031h1.82a6.04 6.04 0 0 1 2.007-4.489z" fill="url(#F)"/></g></svg>