<svg xmlns="http://www.w3.org/2000/svg" width="869.786" height="116.255" fill="none" xmlns:v="https://vecta.io/nano"><path d="M82.117 112.795V32.293h47.517V2.999H0v29.294h47.517v80.502zM178.082 2.999h-34.6v109.796h34.6zm25.318 0v109.796h31.833V52.131l59.281 60.664h29.525V2.999h-31.833v60.204L234.31 2.999zm188.646 68.277l39.9 41.519h44.52l-55.59-57.205 53.51-52.591h-41.98l-40.36 41.289h-9.23V2.999h-33.448v109.796h33.448V71.276zM545.286 0c-44.98 0-71.97 25.373-71.97 58.127s26.99 58.128 71.97 58.128c44.76 0 71.74-25.373 71.74-58.128S590.046 0 545.286 0zm0 89.498c-22.37 0-36.68-13.379-36.68-31.371s14.31-31.14 36.68-31.14c22.15 0 36.68 13.149 36.68 31.14s-14.53 31.371-36.68 31.371zm198.58-86.499h-110.95v109.796h33.44v-38.29h72.67v-24.22h-72.67V30.909h77.51zm125.92 0h-110.96v109.796h33.45v-38.29h72.67v-24.22h-72.67V30.909h77.51z" fill="#000"/></svg>