<svg xmlns="http://www.w3.org/2000/svg" width="659.606" height="202.07" fill="#1470b0" xmlns:v="https://vecta.io/nano"><path d="M233.001 199.763L266.361 4h53.358l-33.384 195.763zM479.11 8.222C468.54 4.256 451.975 0 431.288 0c-52.725 0-89.863 26.551-90.18 64.604-.297 28.129 26.514 43.821 46.754 53.185 20.77 9.597 27.752 15.716 27.652 24.283-.133 13.123-16.586 19.116-31.924 19.116-21.355 0-32.701-2.967-50.225-10.274l-6.877-3.112L319 191.625c12.463 5.466 35.508 10.199 59.438 10.445 56.09 0 92.502-26.248 92.916-66.884.199-22.27-14.016-39.216-44.801-53.188-18.65-9.056-30.072-15.099-29.951-24.269 0-8.137 9.668-16.838 30.559-16.838 17.447-.271 30.088 3.534 39.936 7.5l4.781 2.259 7.232-42.428m137.308-4.223h-41.23c-12.773 0-22.332 3.486-27.941 16.234l-79.244 179.402h56.031l11.232-29.418 68.336.084 6.492 29.334h49.512zm-65.417 126.408l21.26-54.724c-.314.521 4.381-11.334 7.074-18.684l3.607 16.878 12.352 56.527h-44.293zM.682 4L0 8.072c21.093 5.106 39.932 12.496 56.426 21.689l47.346 169.688 56.455-.062L244.231 4h-56.525l-52.238 133.496-5.564-27.131a87.94 87.94 0 0 0-.834-2.52l-18.16-87.318C107.681 8.131 98.313 4.432 86.724 4z"/></svg>