<?xml version="1.0" encoding="UTF-8"?>
<!DOCTYPE svg PUBLIC "-//W3C//DTD SVG 1.1//EN" "http://www.w3.org/Graphics/SVG/1.1/DTD/svg11.dtd">
<!-- Creator: CorelDRAW 2018 (64-Bit) -->
<svg xmlns="http://www.w3.org/2000/svg" xml:space="preserve" width="210mm" height="297mm" version="1.1" style="shape-rendering:geometricPrecision; text-rendering:geometricPrecision; image-rendering:optimizeQuality; fill-rule:evenodd; clip-rule:evenodd"
viewBox="0 0 21000 29700"
 xmlns:xlink="http://www.w3.org/1999/xlink">
 <defs>
  <style type="text/css">
   <![CDATA[
    .fil0 {fill:#2B2A29}
   ]]>
  </style>
 </defs>
 <g id="Слой_x0020_1">
  <metadata id="CorelCorpID_0Corel-Layer"/>
  <g id="_1319831399504">
   <path class="fil0" d="M13521.64 13114.76c-284.1,0 -248.64,39.93 -264.55,79.36l-582.01 0c-31.23,-83.73 57.44,-37.94 -79.36,-52.91l0 -1534.39c131.05,-47.44 0.65,-79.36 370.37,-79.36l0 423.28 555.55 26.45c26.34,113.04 17.74,85.67 105.82,132.28 0,159.63 17.69,107.7 35.46,149.72 57.54,136.03 -36.01,71.89 70.36,114.83l0 396.82c-72.77,29.37 -27.91,-0.32 -56.75,75.52 -94.78,249.14 -120.52,139.67 -154.89,268.4zm-2222.22 -634.92c0,-239.56 -20.27,-381.43 26.46,-582.01l317.46 0c18.23,68.75 -9.82,29.51 52.91,52.91 0,298.03 -32.6,672.45 26.45,925.92l238.1 0c31.32,-86.54 -34.32,-19.21 79.36,-79.36l0 -846.56 370.37 0 0 952.38c-147.77,59.64 60.05,-37.22 -147.09,170.36 -48.65,48.76 -6.2,36.33 -96.82,61.91 -119.72,33.79 -60.03,-40.3 -100,58.73l-396.83 0c-37.97,-94.08 -46.12,-36.65 -143.63,-94.47l-118.71 -92.93c-80.84,-95.32 29.27,-37.03 -81.57,-77.15 0,-184.78 -26.46,-258.15 -26.46,-449.73zm-2222.22 -502.65c180.69,-42.1 153.66,-26.45 370.37,-26.45l0 846.56c79.7,21.28 58.08,-0.34 79.37,79.36l238.09 0c31.33,-86.54 -34.32,-19.21 79.37,-79.36l0 -846.56 370.37 0 0 873.01c-60.82,24.55 -75.78,50.29 -79.37,211.64 -170.06,39.62 21.56,30.86 -241.83,102.08 -77.71,21.02 -48.07,-11.63 -75.63,56.65l-343.91 0c-26.09,-64.63 15.49,-29.77 -52.8,-53.03 -76.02,-25.89 -55.57,18.92 -158.75,-52.88l-79.46 -52.82c0,-154.73 -25.67,-100.93 -45.22,-166.42 -41.29,-138.39 61.99,-101.56 -60.6,-151.04l0 -740.74zm4927.76 105.82l45.78 -45.78c44.24,-56.15 31.93,-58.33 114.18,-78.34 56.16,-13.66 117.92,-8.15 176.83,-8.15l185.18 -52.91c55.76,138.14 82.71,-37.58 238.51,131.85 199.87,217.35 137.79,251.11 237.68,291.43l0 291c-207.6,48.36 -516.86,26.46 -767.19,26.46 0,132.92 2.95,137.21 26.45,238.09 160.24,3.57 77.55,-17.14 105.82,52.91l185.19 0c29,-71.85 -11.92,-20.16 55,-50.82 89.76,-41.13 35.6,48.25 77.27,-55l211.64 57.3 48.52 48.52 -32.8 68.39c-94.64,125.49 -149.84,109.47 -239.75,130.86 -153.53,36.54 -59.58,-18.56 -93.43,65.3l-291 0c-33.61,-83.25 48.57,-19.03 -127.44,-57.75 -88.92,-19.56 -47.37,-21.42 -149.65,-114.9 -155.76,-142.35 -29.17,-124.03 -146.19,-171.26l-23.32 -291.01c0,-77.46 15.29,-23.97 23.66,-131.79 4.14,-53.4 -0.34,-129.7 -0.34,-185.67 68.7,-27.73 27.07,-2.41 64.1,-67.78 44.26,-78.14 6.16,-36.48 75.3,-90.95zm-3657.92 -132.27c160.96,0 78.51,-14.3 185.19,-52.91l0 -343.92c160.64,0 211.96,-26.45 343.91,-26.45l0 423.28 317.46 0 0 264.55 -317.46 0 0 978.83 -343.91 0 -35.23 -943.61 -149.96 -35.22 0 -264.55zm-1798.94 1083.55l-47.43 -104.72c-19.22,-96.77 -25.58,-32.31 -56.97,-133.84 -10.3,-33.29 -24.76,-119.71 -27.87,-157.16l-502.65 0 0 555.55 -317.46 0c-75.55,-324.26 -26.45,-1178.05 -26.45,-1587.3l1031.74 0c27.81,68.89 2.7,26.84 68.05,64.23 82.46,47.19 30.87,7.45 89.12,69.61 100.82,107.6 153.95,277.79 128.89,443.08 -22.7,149.78 -33.85,150.54 -102.43,241.63 -29.87,39.67 -64.71,60.21 -51.53,184.9 7.77,73.58 33.98,107.61 63.06,150.6l122.31 168.69c42.79,63.14 103.47,159.71 105.81,264.56l-370.37 0c-24.24,-90.8 -14.54,-23.96 -95.56,-143.19 -2.28,-3.36 -6.61,-11.24 -10.26,-16.64zm3645.31 -4125.88l-47.43 47.43 -222.6 100.34c-4.94,2.85 -10.55,8.11 -15.4,11.05 -59.44,36 -61.72,50.07 -185.28,52.82 -18.86,80.95 -7.31,77.1 -70.36,114.83l-527.13 266.52c-5.06,2.86 -11.25,7.28 -16.48,9.97 -7.17,3.69 -29.82,12.22 -37.42,15.49l-195.6 95.4c-101.17,53.63 -88.12,41.59 -105.39,106.26l-89.24 0 -43.03 50.35 -94.78 66.65c-81.48,40.65 -50.82,-2.55 -169.84,68.11l-205.86 111.6c-341.02,232.55 -270.26,-120.97 -270.26,-164.44l-52.91 -2751.32c93.57,-37.77 20.12,17.64 79.36,-105.82 202.93,4.52 223.1,52.37 301.51,95.31l69.57 36.26c4.83,2.99 10.96,7.67 15.67,10.78l354.36 201.19c202.01,108.2 147.12,120.03 285.24,164.5l189.1 101.91c34.41,24.79 -21.78,-0.31 46.3,33.06l114.14 44.59c4.87,2.9 10.42,8.27 15.1,11.35 100.14,65.88 64.35,22.48 90.49,94.7l105.82 5.48 47.43 47.43 217.08 105.86c91.71,32.57 86.79,67.65 201.75,115.71 32.14,13.45 46.73,15.05 74.02,31.8 39.52,24.26 -16.76,0.68 60.77,45.05l266.45 156.83c92.61,47.28 193.64,124.47 296.52,126.76l13.23 238.1c-171.88,31.71 -144.67,12.76 -246.82,83.87 -125.51,87.37 -92.47,60.89 -110.32,127.77l-137.76 26.45zm-4673.76 -3624.33l-56.2 52.91 -79.37 0c-88.53,56.17 -224.46,83.97 -287.17,158.73 -38,74.49 -16.09,36.32 -109.65,75.75 -3,2.77 -6.52,4.56 -7.61,9.58 -1.19,5.49 -6.81,8.78 -8.64,10.17 -39.4,29.92 4.23,5.54 -43.16,28.58 -83.04,40.38 -5.14,-26.22 -89.94,44.01l-223.27 226.49c-3.88,3.81 -9.62,9.13 -13.46,12.99 -109.33,109.72 -31.02,31.72 -71.85,115.03l-18.18 32.04c-3.62,5.26 -24.18,20.88 -30.15,27.37 -28.87,75.79 -10.81,86.15 -75.75,109.65 -99.8,83.71 -13.15,11.57 -95.05,165.66l-54.2 104.54c-1.83,3.71 -6.01,11.5 -9.48,16.97l7.03 86 -59.94 49.57c-3.73,158.83 16.69,74.43 -52.91,102.53 0,170.99 -27.06,237.84 -26.48,423.26l0 6296.32c-0.58,185.42 26.48,252.27 26.48,423.27 69.67,28.12 49.21,-56.03 52.91,103.07l52.36 55.66 0 79.36c59.01,91.12 83.6,222.41 159.28,288.26 73.6,36.72 35.72,15.18 74.11,108.57 2.99,3.02 9.22,2.21 10.25,7.6l39.84 51.8c69.65,142 89.16,127.25 243.14,287.54 3.77,3.92 9.83,8.93 13.63,12.82l51.69 54.15c100.46,83.15 21.97,-32.21 149.35,93.98 75.86,28.12 85.55,9.81 109.11,74.12 74.91,87.67 26.89,29.56 131.72,76.59l155.99 82.14 110.53 3.06 25.04 49.85c158.83,3.72 74.43,-16.7 102.53,52.91 170.99,0 237.84,27.05 423.26,26.47 2090.19,-6.51 4206.13,-6.51 6296.32,0 185.42,0.58 252.27,-26.47 423.27,-26.47 28,-69.39 -57.04,-49.12 100.88,-52.91l57.85 -55.66 79.36 0 71.54 -31.39c5.08,-2.52 12.32,-6.12 17.53,-8.87 166.26,-87.45 134.55,-36.67 195.9,-115.72 40.41,-77.34 16.34,-36.28 111.86,-79.05 2.94,-2.31 6.6,-11.18 7.6,-8.25 0.08,0.25 128.04,-65.51 207.06,-147.77l171.41 -172.51c5.43,-5.45 22.89,-19.13 27.84,-25.09 71.49,-86.3 -4.6,-6.66 52.43,-107.58 2.33,-4.11 7.38,-10.93 9.73,-14.4 3.58,-5.26 23.59,-20.78 29.44,-27.36 29.19,-76.07 11.04,-87.09 76.5,-109.66 59.33,-49.78 27.58,-7.2 63.1,-91.58 7.19,-17.08 17.55,-48.5 22.01,-57.55l30.4 -48.98c115.06,-216.72 60.88,-212.21 149.04,-247.79 0,-183.1 27.03,-269.06 26.97,-422.76l-0.31 -6429.3c0.83,-171.31 -26.66,-256.93 -26.66,-449.52 -97.97,-39.54 2.53,47.57 -115.52,-175.49l-53.99 -104.74c-2.75,-5.18 -7.3,-11.23 -9.93,-16.53l-85.11 -152.43c-70.17,-34.68 -36.54,-15.72 -69.73,-106.36 -142.45,-121.06 8.41,-39.29 -126.21,-174.44l-236.73 -239.47c-99.18,-82.01 -33.06,31.27 -149.34,-96.55 -75.7,-26.09 -84.31,-7.54 -107.47,-71.55 -79.92,-88.65 -31.36,-25.9 -151.33,-85.11l-138.03 -74.72 -85.88 6.92 -48.59 -58.73c-159.36,-3.68 -75.47,16.84 -103.62,-52.91 -171,0 -237.85,-27.06 -423.27,-26.48l-6296.32 0c-185.42,-0.58 -252.27,26.48 -423.26,26.48 -28.1,69.6 56.3,49.18 -102.53,52.91z"/>
   <path class="fil0" d="M7913.18 12321.11l502.65 0c60.15,-113.69 -7.18,-48.04 79.36,-79.37l0 -264.55c-68.76,-18.24 -29.51,9.81 -52.91,-52.91l-529.1 0 0 396.83z"/>
   <path class="fil0" d="M12992.54 12823.75c216.71,0 189.68,15.64 370.37,-26.45l0 -449.74c-86.54,-31.33 -19.21,34.32 -79.36,-79.36l-291.01 0 0 555.55z"/>
   <path class="fil0" d="M14235.93 12374.02l396.82 0c-2.46,-110.45 -8.04,-77.01 -37.75,-120.98l-41.61 -64.21c-224.28,0 -312.69,-29.2 -317.46,185.19z"/>
   <path class="fil0" d="M15905.46 14490.42c75.87,0 40.82,-31.52 76.5,-109.66 -65.46,22.57 -47.31,33.59 -76.5,109.66z"/>
   <path class="fil0" d="M15288.09 15072.43c31.45,-15.32 37.04,-5.84 61.88,-24.47 68.12,-51.07 2.23,59.06 49.98,-54.58 -95.52,42.77 -71.45,1.71 -111.86,79.05z"/>
   <path class="fil0" d="M6193.61 6610.12l59.94 -49.57 -7.03 -86c-13.55,21.35 -11.67,12.89 -26.02,53.17 -14.34,40.23 -6.52,36.89 -26.89,82.4z"/>
   <path class="fil0" d="M7519.65 15284.07l-25.04 -49.85 -110.53 -3.06c21.35,13.54 12.89,11.66 53.17,26.01 40.23,14.34 36.89,6.52 82.4,26.9z"/>
   <path class="fil0" d="M15003.12 5335.89c-26.92,-16.37 13.07,-1.69 -53.23,-24.97 -43.5,-15.28 -33.15,-4.82 -81.24,-26.84l48.59 58.73 85.88 -6.92z"/>
   <path class="fil0" d="M6405.25 6187.38c64.94,-23.5 46.88,-33.86 75.75,-109.65 -76.39,60.48 -8.04,-20.08 -51.44,49.87 -4.25,6.84 -19.12,48.05 -24.31,59.78z"/>
   <path class="fil0" d="M7096.37 15072.43c-23.56,-64.31 -33.25,-46 -109.11,-74.12 57.7,70.53 -17.96,8.38 49.84,49.88 7.52,4.61 46.83,18.67 59.27,24.24z"/>
   <path class="fil0" d="M6987.26 5571.47c93.56,-39.43 71.65,-1.26 109.65,-75.75 -30.6,13.55 -35.37,6.54 -59.78,24.31 -62.22,45.28 8.09,-21.78 -49.87,51.44z"/>
   <path class="fil0" d="M6479.36 14490.42c-38.39,-93.39 -0.51,-71.85 -74.11,-108.57 13.52,29.86 6.76,34.36 24.23,58.75 43.03,60.05 -17.24,-5.1 49.88,49.82z"/>
   <path class="fil0" d="M15399.95 5567.27c-53.07,-61.48 14.09,-8.9 -49.77,-47.44 -8.15,-4.92 -44.53,-18.01 -57.7,-24.11 23.16,64.01 31.77,45.46 107.47,71.55z"/>
   <path class="fil0" d="M14865.91 15284.07l120.99 -44.53c3.88,-1.9 10.85,-7.37 16.22,-11.13l-79.36 0 -57.85 55.66z"/>
   <path class="fil0" d="M15981.96 6184.09c-13.69,-28.85 -7.02,-31.69 -24.03,-56.65 -36.97,-54.22 6.22,-3.07 -45.7,-49.71 33.19,90.64 -0.44,71.68 69.73,106.36z"/>
   <polygon class="fil0" points="8548.1,13034.29 8548.1,12929.57 8500.67,12929.57 "/>
   <path class="fil0" d="M6245.97 14093.59l0 -79.36 -52.36 -55.66 33.9 101.17c1.96,4.83 6.96,13.68 8.66,17.53 1.66,3.75 6.45,10.93 9.8,16.32z"/>
   <polygon class="fil0" points="7384.08,5336.99 7463.45,5336.99 7519.65,5284.08 "/>
   <polygon class="fil0" points="14945.82,12929.57 14897.3,12881.05 14897.3,12929.57 "/>
   <polygon class="fil0" points="11558.49,7850.21 11511.06,7802.78 11511.06,7850.21 "/>
   <polygon class="fil0" points="12145.98,8955.84 12193.41,8908.41 12145.98,8908.41 "/>
   <path class="fil0" d="M14004.96 12083.01c53.72,-11.74 34.04,7.94 45.78,-45.78l-45.78 45.78z"/>
   <polygon class="fil0" points="10638.05,9778.87 10681.08,9728.52 "/>
  </g>
 </g>
</svg>
