<svg xmlns="http://www.w3.org/2000/svg" width="1228" height="350" viewBox="0 0 11563.74 3295.02" shape-rendering="geometricPrecision" image-rendering="optimizeQuality" fill-rule="evenodd" xmlns:v="https://vecta.io/nano"><path d="M2646.12 1270.93l-37.32 27.7c0 16.26 4.63 9.71-17.71 10.23 0 13 5.59 11.95-20.02 9.07l-46.79 27.89c0 13.91 5.7 12.19-20.2 9.09l-66.12 37.49c0 21.34-5.37 4.83-18.41 9.72l-28.53 20.32-37.63 17.13c0 21.4-5.18 4.81-18.26 9.83l-28.56 20.23-37.66 17.15c0 21.43-5.05 4.85-18.24 9.85l-28.41 20.21-37.66 17.19c0 21.84-5.14 4.82-18.47 9.82l-48.33 27.23c0 15.23 4.52 9.08-17.68 10.14 0 21.74-4.78 4.91-18.39 9.88l-10.96 9.37-18.44-.04c-17.16 14.92 9.23-5.29-15.13 13.12l-204.52 115.58c-239.48 126.16-539.22 310.75-769 426.61l-235.22 131.95c0-117-85.26-672.91-103.19-838.24L621.35 602.52c-22.47 0-.54-9.14-8.42-58.04l-13.19-42.31 5.46-34.56-13.18-42.32 3.71-32.88-13.18-42.26 3.7-32.89L573.09 275l1.74-38.15-11.2-37 1.72-38.2c-2.99-23.87-10.35-4.32-12.26-76.92C519.36 95 76.23 429.07 0 480.13l152.76 1410.02 39.33 346.65 118.58 1058.22c153.32-81.12 317.05-187.4 467.61-266.72l734.24-423.71 1202.01-690.29 364.28-210c22.86-16.1 21.45-26.32 27.51-57.22l132.23-696.23-592.43 320.08z" fill="#009fe2"/><path d="M2052.33 1600.43c33.72.06 44.19-21.83 85.41-36.4 0-15.27-4.3-8.54 17.36-10.25 0-22.05 5.15-4.78 18.53-9.81l10.97-9.94 37.66-17.19c0-15.33-4.35-8.69 17.31-10.26 0-22.07 4.95-4.79 18.37-9.9l10.97-9.9 37.66-17.15c0-15.52-4.56-9.17 17.57-10.22 0-22.17 4.75-4.83 18.26-9.97l10.99-9.87 37.63-17.13c0-15.85-4.44-9.06 17.41-10.27 0-22.57 4.88-4.85 18.53-9.92l11-9.85 37.57-17.15c0-15.94-4.45-9.19 17.28-10.3 0-12.74-5.59-12.06 20.01-9l46.89-27.93c0-13.7-5.65-12 20.17-9.1l66.24-47.99-1202.64-775.05c-62.81-36.15-111.14-77.4-172.54-109.89-87.91 46.52-476.8 316.04-527.21 329.5 11.03 41.3 32.86 37.59 69.74 62.06l1157.9 762.64c27.68 18.44 64.26 37.45 80.96 60.24zM553.09 84.73c1.91 72.6 9.27 53.05 12.26 76.92l-1.72 38.2 11.2 37-1.74 38.15 13.16 42.26-3.7 32.89 13.18 42.26-3.71 32.88 13.18 42.32-5.46 34.56c1.33 18.23 12.6 7.64 13.93 85.44 41.56 0 89.14-44.99 128.26-71.63l350.14-242.97C1062.63 232.84 725.25 49.38 668.42 0c-41.17 27.56-74.15 54.44-115.33 84.73z" fill="#fdfdfd"/><path d="M621.35 602.52v-14.91h-7.68c-2.12 17.76-7.31 14.91 7.68 14.91zm1902.93 743.3l-11.46 10.13c15.03.96 11.46 4.6 11.46-10.13zm84.52-47.19l-11.47 10.09c15 .87 11.47 4.57 11.47-10.09z" fill="#5ac1ec"/><path d="M2571.07 1317.93c-14.87-.81-11.36-4.47-11.36 10.09l11.36-10.09z" fill="#a2dcf5"/><path d="M2591.09 1308.86l-11.21 10.06c14.63.48 11.21 4.16 11.21-10.06z" fill="#6fcaef"/><path d="M2504.08 1354.91c-14.67-.42-11.27-4.15-11.27 10.04l11.27-10.04z" fill="#8ed5f3"/><path d="M2486.7 1365.26c-14.6-.59-11.17-4.23-11.17 9.99l11.17-9.99zm-84.48 47.25c-14.58-.53-11.2-4.21-11.2 9.93l11.2-9.93z" fill="#a2dcf5"/><path d="M2419.55 1402.12c-14.51-.37-11.12-4.05-11.12 10.05l11.12-10.05z" fill="#8ed5f3"/><path d="M2317.64 1459.72c-14.44-.47-11.07-4.12-11.07 9.91l11.07-9.91z" fill="#a2dcf5"/><path d="M2117.8 1571.08l-11.16 9.83c14.46.35 11.16 4.07 11.16-9.83z" fill="#5ac1ec"/><path d="M2250.67 1496.63c-14.4-.19-11.1-3.91-11.1 9.95l11.1-9.95zm84.46-47.23c-14.33-.21-10.99-3.88-10.99 10.01l10.99-10.01z" fill="#8ed5f3"/><path d="M2100.12 1581.22l-11.09 9.93c14.35.09 11.09 3.84 11.09-9.93z" fill="#6fcaef"/><path d="M2166.13 1543.85c-14.32-.15-11.03-3.86-11.03 9.93l11.03-9.93z" fill="#8ed5f3"/><path d="M2233.27 1507.04c-14.27-.24-11.01-3.92-11.01 9.8l11.01-9.8zm-84.49 47.24c-14.26-.18-11.04-3.9-11.04 9.75l11.04-9.75z" fill="#a2dcf5"/><path d="M2184.6 1534.03l-10.97 9.94c14.23.02 10.97 3.74 10.97-9.94zm84.31-47.25l-10.97 9.9c14.17-.14 10.97 3.62 10.97-9.9zm84.48-47.21l-10.99 9.87c14.17-.14 10.99 3.64 10.99-9.87zm84.57-47.17l-11 9.85c14.16-.19 11 3.62 11-9.85z" fill="#6fcaef"/><path d="M565.35 161.65h0m9.48 75.2h0m11.42 80.41h0m9.48 75.15h0m9.47 75.2h0" fill="#8ed5f3"/><path d="M612.93 544.48h0" fill="#6fcaef"/><path d="M2081.73 1591.1h0" fill="#8ed5f3"/><path d="M8525.28 1933.11V711.87h247.32v1221.24zM6497.5 711.87h792.63c176.94 0 304.13 18.18 415.61 135.88 171.17 180.71 192.13 532.22 118.83 746.22-86.94 253.83-256.79 339.14-521.07 339.14h-806V711.87zm247.33 206.39v808.47c111.62 0 594.33 8.38 674.64-11.66 170.61-42.56 188.49-221.46 188.49-392.29 0-177.1-27.1-353.09-208.38-392.87-83.85-18.39-538.87-11.65-654.75-11.65zM5165.79 1933.11V711.87h1087.67v206.39h-840.35v271.19h794.31v206.39h-794.31v330.89h864.24v206.38zM3973.44 1928V716.99h247.31v1004.62h734.79V1928zm6242.57-1216.13h-568.14c-176.95 0-304.13 18.18-415.61 135.88-171.17 180.71-192.13 532.22-118.83 746.22 86.94 253.85 256.79 339.14 521.07 339.14h581.51v-206.38c-113.75 0-616.54 8.54-697.48-11.66-170.59-42.55-188.49-221.48-188.49-392.29 0-177.09 27.11-353.12 208.38-392.87 84.68-18.57 560.18-11.65 677.59-11.65V711.87zm236.16 1221.24V711.87h1087.68v206.39h-840.36v271.19h794.32v206.39h-794.32v330.89h864.25v206.38z" fill="#fefefe" fill-rule="nonzero"/></svg>